<?xml version="1.0" standalone="no"?>
<!DOCTYPE svg PUBLIC "-//W3C//DTD SVG 20010904//EN"
 "http://www.w3.org/TR/2001/REC-SVG-20010904/DTD/svg10.dtd">
<svg version="1.0" xmlns="http://www.w3.org/2000/svg"
 width="256.000000pt" height="256.000000pt" viewBox="0 0 256.000000 256.000000"
 preserveAspectRatio="xMidYMid meet">
<metadata>
Created by potrace 1.11, written by Peter Selinger 2001-2013
</metadata>
<g transform="translate(0.000000,256.000000) scale(0.100000,-0.100000)"
fill="#000000" stroke="none">
<path d="M1052 2259 c-13 -5 -76 -44 -140 -86 -110 -72 -329 -184 -525 -268
-97 -42 -127 -70 -127 -122 0 -43 46 -93 85 -93 47 0 516 216 612 281 23 16
45 29 48 29 9 0 -2 -174 -21 -344 -18 -164 -50 -323 -113 -556 -64 -239 -111
-369 -173 -477 -27 -47 -52 -100 -55 -117 -7 -48 12 -85 53 -102 62 -26 86
-13 186 102 50 57 143 148 207 201 147 122 234 212 296 302 l49 71 38 -58 c55
-80 109 -190 229 -462 57 -129 114 -245 126 -257 52 -53 153 -11 153 63 0 51
-236 585 -313 710 l-26 40 107 0 c86 -1 120 4 173 22 186 64 310 188 355 353
21 79 29 233 15 301 -49 232 -306 431 -502 389 -149 -32 -200 -102 -267 -361
-22 -85 -56 -200 -77 -255 -49 -133 -155 -352 -206 -429 -42 -61 -196 -226
-212 -226 -5 0 -6 10 -3 23 35 120 108 422 121 497 30 171 46 342 52 565 l6
221 -32 27 c-34 28 -75 34 -119 16z m878 -289 c51 -26 125 -104 152 -159 19
-38 23 -62 23 -136 0 -117 -23 -192 -75 -249 -64 -69 -187 -126 -275 -126 -44
0 -185 38 -185 50 0 5 21 61 46 127 25 65 64 188 86 273 21 85 46 170 55 188
30 63 91 74 173 32z"/>
</g>
</svg>
